<?xml version="1.0" encoding="UTF-8" standalone="no"?>
<!-- Created with Inkscape (http://www.inkscape.org/) -->

<svg
     xmlns:dc="http://purl.org/dc/elements/1.1/"
     xmlns:cc="http://creativecommons.org/ns#"
     xmlns:rdf="http://www.w3.org/1999/02/22-rdf-syntax-ns#"
     xmlns:svg="http://www.w3.org/2000/svg"
     xmlns="http://www.w3.org/2000/svg"
     xmlns:sodipodi="http://sodipodi.sourceforge.net/DTD/sodipodi-0.dtd"
     xmlns:inkscape="http://www.inkscape.org/namespaces/inkscape"
     width="32px"
     height="32px"
     id="svg3842"
     version="1.1"
     inkscape:version="0.48.4 r9939"
     sodipodi:docname="about.svg">
    <defs
         id="defs3844" />
    <sodipodi:namedview
         id="base"
         pagecolor="#ccc"
         bordercolor="#666666"
         borderopacity="1.0"
         inkscape:pageopacity="1"
         inkscape:pageshadow="2"
         inkscape:zoom="16.21875"
         inkscape:cx="16"
         inkscape:cy="16.030829"
         inkscape:current-layer="layer1"
         showgrid="true"
         inkscape:grid-bbox="true"
         inkscape:document-units="px"
         inkscape:snap-grids="true"
         inkscape:window-width="1366"
         inkscape:window-height="706"
         inkscape:window-x="-8"
         inkscape:window-y="-8"
         inkscape:window-maximized="1"
         inkscape:snap-to-guides="true">
        <inkscape:grid
             type="xygrid"
             id="grid3850"
             empspacing="5"
             visible="true"
             enabled="true"
             snapvisiblegridlinesonly="true" />
    </sodipodi:namedview>
    <metadata
         id="metadata3847">
        <rdf:RDF>
            <cc:Work
                 rdf:about="">
                <dc:format>image/svg+xml</dc:format>
                <dc:type
                     rdf:resource="http://purl.org/dc/dcmitype/StillImage" />
                <dc:title></dc:title>
            </cc:Work>
        </rdf:RDF>
    </metadata>
    <g
         id="layer1"
         inkscape:label="Layer 1"
         inkscape:groupmode="layer">
        <path
             style="fill:#ffffff;fill-opacity:1;stroke:#000000;stroke-width:0;stroke-miterlimit:4;stroke-opacity:1;stroke-dasharray:none"
             d="M 16 0 C 7.163444 1.7763568e-015 2.6212348e-018 7.163444 0 16 C 0 24.836556 7.163444 32 16 32 C 24.836556 32 32 24.836556 32 16 C 32 7.163444 24.836556 -3.5500924e-015 16 0 z M 16 2 C 23.731986 2 30 8.2680135 30 16 C 30 23.731986 23.731986 30 16 30 C 8.2680135 30 2 23.731986 2 16 C 2 8.2680135 8.2680135 2 16 2 z M 16 8 C 11.581722 8 8 11.581722 8 16 C 8 20.418278 11.581722 24 16 24 C 20.418278 24 24 20.418278 24 16 C 24 11.581722 20.418278 8 16 8 z M 16 10 C 19.313708 10 22 12.686292 22 16 C 22 19.313708 19.313708 22 16 22 C 12.686292 22 10 19.313708 10 16 C 10 12.686292 12.686292 10 16 10 z "
             id="path4004" />
        <path
             style="fill:#000000;fill-opacity:1;stroke:#000000;stroke-width:0;stroke-miterlimit:4;stroke-opacity:1;stroke-dasharray:none"
             d="M 14.150289,29.846681 C 12.630926,29.635878 11.307718,29.232496 9.9267823,28.559137 8.4060461,27.81761 7.2483332,26.988717 6.0571528,25.788581 4.3834213,24.102266 3.1611209,21.980715 2.524015,19.656101 1.7760466,16.926983 1.9141799,13.807211 2.9001478,11.161059 3.6172456,9.2365034 4.6668674,7.606543 6.1336223,6.139788 8.3664154,3.906995 11.142663,2.5490659 14.33526,2.1281713 c 0.753469,-0.099333 2.576011,-0.099333 3.32948,0 3.192597,0.4208946 5.968845,1.7788237 8.201637,4.0116167 2.670317,2.6703164 4.078561,6.076977 4.078561,9.866378 0,4.747747 -2.306265,9.020989 -6.299466,11.672177 -1.688309,1.120911 -3.767694,1.892313 -5.857418,2.17296 -0.808733,0.108611 -2.840232,0.10603 -3.637765,-0.0046 l 0,2e-6 z m 3.006186,-5.916263 c 1.407411,-0.213571 2.513275,-0.670737 3.635825,-1.503056 2.012617,-1.492265 3.218135,-3.889223 3.222038,-6.406446 0.0059,-3.822488 -2.637501,-7.0732628 -6.413346,-7.88686 -0.734206,-0.1582021 -2.467778,-0.1582021 -3.201984,0 -5.1441949,1.1084411 -7.894625,6.669638 -5.6162633,11.355732 1.5347623,3.156673 4.9388283,4.961866 8.3737303,4.44063 l 0,0 z"
             id="path4015"
             inkscape:connector-curvature="0" />
    </g>
</svg>
