<?xml version="1.0" encoding="UTF-8" standalone="no"?>
<!-- Created with Inkscape (http://www.inkscape.org/) -->

<svg
     xmlns:dc="http://purl.org/dc/elements/1.1/"
     xmlns:cc="http://creativecommons.org/ns#"
     xmlns:rdf="http://www.w3.org/1999/02/22-rdf-syntax-ns#"
     xmlns:svg="http://www.w3.org/2000/svg"
     xmlns="http://www.w3.org/2000/svg"
     xmlns:sodipodi="http://sodipodi.sourceforge.net/DTD/sodipodi-0.dtd"
     xmlns:inkscape="http://www.inkscape.org/namespaces/inkscape"
     width="32px"
     height="32px"
     id="svg3842"
     version="1.1"
     inkscape:version="0.48.4 r9939"
     sodipodi:docname="audio.svg">
    <defs
         id="defs3844" />
    <sodipodi:namedview
         id="base"
         pagecolor="#ccc"
         bordercolor="#666666"
         borderopacity="1.0"
         inkscape:pageopacity="1"
         inkscape:pageshadow="2"
         inkscape:zoom="15.836083"
         inkscape:cx="13.82692"
         inkscape:cy="16"
         inkscape:current-layer="layer1"
         showgrid="true"
         inkscape:grid-bbox="true"
         inkscape:document-units="px"
         inkscape:snap-grids="true"
         inkscape:window-width="1366"
         inkscape:window-height="706"
         inkscape:window-x="-8"
         inkscape:window-y="-8"
         inkscape:window-maximized="1">
        <inkscape:grid
             type="xygrid"
             id="grid3850"
             empspacing="5"
             visible="true"
             enabled="true"
             snapvisiblegridlinesonly="true" />
    </sodipodi:namedview>
    <metadata
         id="metadata3847">
        <rdf:RDF>
            <cc:Work
                 rdf:about="">
                <dc:format>image/svg+xml</dc:format>
                <dc:type
                     rdf:resource="http://purl.org/dc/dcmitype/StillImage" />
                <dc:title></dc:title>
            </cc:Work>
        </rdf:RDF>
    </metadata>
    <g
         id="layer1"
         inkscape:label="Layer 1"
         inkscape:groupmode="layer">
        <path
             sodipodi:type="arc"
             style="fill:white;fill-opacity:1;stroke:black;stroke-width:0;stroke-linecap:round;stroke-linejoin:round;stroke-miterlimit:4;stroke-opacity:1;stroke-dasharray:none"
             id="path4390"
             sodipodi:cx="7"
             sodipodi:cy="25"
             sodipodi:rx="7"
             sodipodi:ry="7"
             d="M 14,25 A 7,7 0 1 1 0,25 7,7 0 1 1 14,25 z" />
        <path
             sodipodi:type="arc"
             style="fill:white;fill-opacity:1;stroke:black;stroke-width:0;stroke-linecap:round;stroke-linejoin:round;stroke-miterlimit:4;stroke-opacity:1;stroke-dasharray:none"
             id="path4392"
             sodipodi:cx="25"
             sodipodi:cy="25"
             sodipodi:rx="7"
             sodipodi:ry="7"
             d="m 32,25 a 7,7 0 1 1 -14,0 7,7 0 1 1 14,0 z" />
        <path
             sodipodi:type="arc"
             style="fill:black;fill-opacity:1;stroke:black;stroke-width:0;stroke-linecap:round;stroke-linejoin:round;stroke-miterlimit:4;stroke-opacity:1;stroke-dasharray:none"
             id="path4396"
             sodipodi:cx="7"
             sodipodi:cy="25"
             sodipodi:rx="5"
             sodipodi:ry="5"
             d="M 12,25 A 5,5 0 1 1 2,25 5,5 0 1 1 12,25 z" />
        <path
             sodipodi:type="arc"
             style="fill:black;fill-opacity:1;stroke:black;stroke-width:0;stroke-linecap:round;stroke-linejoin:round;stroke-miterlimit:4;stroke-opacity:1;stroke-dasharray:none"
             id="path4398"
             sodipodi:cx="25"
             sodipodi:cy="25"
             sodipodi:rx="5"
             sodipodi:ry="5"
             d="m 30,25 a 5,5 0 1 1 -10,0 5,5 0 1 1 10,0 z" />
        <path
             style="fill:white;stroke:black;stroke-width:0;stroke-linecap:butt;stroke-linejoin:round;stroke-opacity:1;fill-opacity:1;stroke-miterlimit:4;stroke-dasharray:none"
             d="M 32,25 32,0 6,0 6,19 8,19 8,2 30,2 30,25 z"
             id="path4402"
             inkscape:connector-curvature="0" />
        <path
             style="fill:white;stroke:black;stroke-width:0;stroke-linecap:butt;stroke-linejoin:round;stroke-opacity:1;stroke-miterlimit:4;stroke-dasharray:none;fill-opacity:1"
             d="m 12,20 0,-14 14,0 0,13 -2,0 0,-11 -10,0 0,17 -2,0 z"
             id="path4404"
             inkscape:connector-curvature="0" />
        <path
             style="fill:black;fill-opacity:1;stroke:black;stroke-width:0;stroke-linecap:round;stroke-linejoin:round;stroke-miterlimit:4;stroke-opacity:1;stroke-dasharray:none"
             d="M 11.806218,19.806378 C 11.598224,19.552707 10.673865,18.928772 10.066685,18.632206 9.6763451,18.441551 9.1600197,18.252938 8.7521938,18.152022 l -0.6716442,-0.166198 0,-7.945388 0,-7.9453892 10.9244184,0 10.924418,0 0,8.9117592 0,8.911759 -0.269107,-0.248054 C 28.95197,19.017614 27.777894,18.406603 26.736466,18.148903 l -0.659042,-0.163079 0,-6.019407 0,-6.0194077 -7.07218,0 -7.07218,0 -0.01606,6.9874457 c -0.0143,6.221844 -0.02644,6.974787 -0.110783,6.871923 z"
             id="path4406"
             inkscape:connector-curvature="0" />
        <rect
             style="fill:black;fill-opacity:1;stroke:black;stroke-width:0;stroke-linecap:round;stroke-linejoin:round;stroke-miterlimit:4;stroke-opacity:1;stroke-dasharray:none"
             id="rect4410"
             width="4"
             height="8"
             x="8"
             y="17" />
        <rect
             style="fill:black;fill-opacity:1;stroke:black;stroke-width:0;stroke-linecap:round;stroke-linejoin:round;stroke-miterlimit:4;stroke-opacity:1;stroke-dasharray:none"
             id="rect4412"
             width="4"
             height="8"
             x="26"
             y="17" />
    </g>
</svg>
