<?xml version="1.0" encoding="UTF-8" standalone="no"?>
<!-- Created with Inkscape (http://www.inkscape.org/) -->

<svg
     xmlns:dc="http://purl.org/dc/elements/1.1/"
     xmlns:cc="http://creativecommons.org/ns#"
     xmlns:rdf="http://www.w3.org/1999/02/22-rdf-syntax-ns#"
     xmlns:svg="http://www.w3.org/2000/svg"
     xmlns="http://www.w3.org/2000/svg"
     xmlns:sodipodi="http://sodipodi.sourceforge.net/DTD/sodipodi-0.dtd"
     xmlns:inkscape="http://www.inkscape.org/namespaces/inkscape"
     width="32px"
     height="32px"
     id="svg3842"
     version="1.1"
     inkscape:version="0.48.4 r9939"
     sodipodi:docname="bookmark.svg">
    <defs
         id="defs3844" />
    <sodipodi:namedview
         id="base"
         pagecolor="#ccc"
         bordercolor="#666666"
         borderopacity="1.0"
         inkscape:pageopacity="1"
         inkscape:pageshadow="2"
         inkscape:zoom="15.836083"
         inkscape:cx="10.180554"
         inkscape:cy="16"
         inkscape:current-layer="layer1"
         showgrid="true"
         inkscape:grid-bbox="true"
         inkscape:document-units="px"
         inkscape:snap-grids="true"
         inkscape:window-width="1366"
         inkscape:window-height="706"
         inkscape:window-x="-8"
         inkscape:window-y="-8"
         inkscape:window-maximized="1">
        <inkscape:grid
             type="xygrid"
             id="grid3850"
             empspacing="5"
             visible="true"
             enabled="true"
             snapvisiblegridlinesonly="true" />
    </sodipodi:namedview>
    <metadata
         id="metadata3847">
        <rdf:RDF>
            <cc:Work
                 rdf:about="">
                <dc:format>image/svg+xml</dc:format>
                <dc:type
                     rdf:resource="http://purl.org/dc/dcmitype/StillImage" />
                <dc:title></dc:title>
            </cc:Work>
        </rdf:RDF>
    </metadata>
    <g
         id="layer1"
         inkscape:label="Layer 1"
         inkscape:groupmode="layer">
        <path
             style="fill:black;stroke:black;stroke-width:0.10000000000000001;stroke-linecap:butt;stroke-linejoin:round;stroke-opacity:1;stroke-miterlimit:4;stroke-dasharray:none;fill-opacity:1"
             d="M 6 0 L 6 6 L 0 6 L 0 14 L 6 14 L 6 18 L 0 18 L 0 26 L 6 26 L 6 32 L 14 32 L 14 26 L 18 26 L 18 32 L 26 32 L 26 26 L 32 26 L 32 18 L 26 18 L 26 14 L 32 14 L 32 6 L 26 6 L 26 0 L 18 0 L 18 6 L 14 6 L 14 0 L 6 0 z M 8 2 L 12 2 L 12 8 L 20 8 L 20 2 L 24 2 L 24 8 L 30 8 L 30 12 L 24 12 L 24 20 L 30 20 L 30 24 L 24 24 L 24 30 L 20 30 L 20 24 L 12 24 L 12 30 L 8 30 L 8 24 L 2 24 L 2 20 L 8 20 L 8 12 L 2 12 L 2 8 L 8 8 L 8 2 z "
             id="path4414" />
        <path
             style="fill:black;stroke:black;stroke-width:0.10000000000000001;stroke-linecap:butt;stroke-linejoin:miter;stroke-opacity:1;stroke-miterlimit:4;stroke-dasharray:none"
             d="M 12 12 L 12 20 L 20 20 L 20 12 L 12 12 z M 14 14 L 18 14 L 18 18 L 14 18 L 14 14 z "
             id="path4424" />
        <path
             style="fill:white;fill-opacity:1;fill-rule:nonzero;stroke:black;stroke-width:0.00631469;stroke-linecap:round;stroke-linejoin:round;stroke-miterlimit:4;stroke-opacity:1;stroke-dasharray:none"
             d="m 8.0967051,26.943362 0,-2.999479 -2.999479,0 -2.9994791,0 0,-1.925363 0,-1.925363 2.9836923,-0.01641 2.9836923,-0.0164 0.016251,-4.05719 0.016251,-4.05719 -2.999943,0 -2.9999431,0 0,-1.925363 0,-1.9253626 2.9836923,-0.016405 2.9836923,-0.016405 0.016405,-2.9836923 0.016405,-2.9836922 1.9253629,0 1.925363,0 0,2.999943 0,2.999943 4.05719,-0.016251 4.05719,-0.016251 0.01641,-2.9836923 0.0164,-2.9836922 1.925363,0 1.925363,0 0,2.999479 0,2.999479 2.999479,0 2.999479,0 0,1.9259816 0,1.925981 -2.999479,0 -2.999479,0 0,4.072977 0,4.072977 2.999479,0 2.999479,0 0,1.925981 0,1.925981 -2.999479,0 -2.999479,0 0,2.999479 0,2.999479 -1.925982,0 -1.925981,0 0,-2.999479 0,-2.999479 -4.072977,0 -4.072976,0 0,2.999479 0,2.999479 -1.925982,0 -1.9259805,0 0,-2.999479 z m 11.9979159,-10.924418 0,-4.072977 -4.072977,0 -4.072976,0 0,4.072977 0,4.072977 4.072976,0 4.072977,0 0,-4.072977 z"
             id="path4464"
             inkscape:connector-curvature="0" />
        <path
             style="fill:white;fill-opacity:1;fill-rule:nonzero;stroke:black;stroke-width:0.00631469;stroke-linecap:round;stroke-linejoin:round;stroke-miterlimit:4;stroke-opacity:1;stroke-dasharray:none"
             d="m 5.9918075,31.984592 c -0.023154,-0.02315 -0.042098,-1.372641 -0.042098,-2.99886 l 0,-2.956764 -2.9836923,-0.0164 -2.9836923,-0.0164 -0.01625764,-3.994043 -0.01625764,-3.994043 2.99994998,0 2.9999499,0 0,-1.98851 0,-1.98851 -2.9836923,-0.01641 -2.9836923,-0.01641 -0.01625764,-3.994043 -0.01625764,-3.9940428 2.99994998,0 2.9999499,0 0,-2.999479 0,-2.99947902 4.0414033,0 4.0414032,0 0,3.00037862 0,3.0003787 1.973342,-0.016686 1.973341,-0.016686 0.0164,-2.9836922 0.0164,-2.98369232 4.009212,0 4.009211,0 0,2.99947902 0,2.999479 2.99995,0 2.99995,0 -0.01626,3.994043 -0.01626,3.994043 -2.999479,0 -2.999479,0 0.0175,2.004915 0.0175,2.004915 2.997765,0 2.997765,0 0,4.011025 0,4.011026 -3.015265,-0.01698 -3.015266,-0.01698 0.01698,3.015266 0.01698,3.015266 -4.011026,0 -4.011025,0 0,-2.997765 0,-2.997765 -2.004915,-0.0175 -2.004915,-0.0175 0.01698,3.015266 0.01698,3.015266 -4.000502,0 c -2.2002754,0 -4.0194447,-0.01894 -4.0425986,-0.0421 l 0,0 z m 6.0048385,-4.993869 0.01641,-2.983693 4.009212,0 4.009211,0 0,3.000379 0,3.000378 1.973342,-0.01669 1.973341,-0.01669 0.0164,-2.983074 0.0164,-2.983075 2.983075,-0.0164 2.983074,-0.01641 0.01669,-1.973342 0.01669,-1.973341 -3.000379,0 -3.000378,0 0,-4.009212 0,-4.009211 2.983692,-0.01641 2.983692,-0.0164 0.01669,-1.973342 0.01669,-1.9733411 -3.000379,0 -3.000378,0 0,-2.9994791 0,-2.999479 -1.98851,0 -1.98851,0 -0.0164,2.9836923 -0.0164,2.9836923 -3.994043,0.016258 -3.994043,0.016257 0,-2.9999497 0,-2.9999499 -1.98851,0 -1.9885104,0 -0.016405,2.9836923 -0.016405,2.9836923 -2.9836923,0.016405 -2.9836923,0.016405 0,1.9885096 0,1.98851 2.9999499,0 2.9999497,0 -0.016257,3.994043 -0.016258,3.994043 -2.9836923,0.0164 -2.9836923,0.01641 0,1.98851 0,1.98851 2.999479,0 2.999479,0 0,3.000379 0,3.000378 1.973342,-0.01669 1.973341,-0.01669 0.01641,-2.983692 0,0 z"
             id="path4466"
             inkscape:connector-curvature="0" />
        <path
             style="fill:white;fill-opacity:1;fill-rule:nonzero;stroke:black;stroke-width:0.00631469000000000;stroke-linecap:round;stroke-linejoin:round;stroke-miterlimit:4;stroke-opacity:1;stroke-dasharray:none"
             d="m 12.011815,16.018944 0,-4.00983 4.009829,0 4.00983,0 0,4.00983 0,4.00983 -4.00983,0 -4.009829,0 0,-4.00983 z m 5.98407,-0.01579 0.01669,-1.973341 -1.990028,0 -1.990028,0 0,1.990028 0,1.990028 1.973342,-0.01669 1.973341,-0.01669 0.01669,-1.973342 z"
             id="path4468"
             inkscape:connector-curvature="0" />
        <path
             style="fill:black;fill-opacity:1;fill-rule:nonzero;stroke:black;stroke-width:0.00631469000000000;stroke-linecap:round;stroke-linejoin:round;stroke-miterlimit:4;stroke-opacity:1;stroke-dasharray:none"
             d="M 8.1446836,26.896002 8.1282785,23.91231 5.1445863,23.895905 2.160894,23.8795 l 0,-1.852692 0,-1.852692 0.6156825,-0.04077 c 0.3386254,-0.02242 1.6716818,-0.04092 2.9623477,-0.0411 l 2.3466651,-3.26e-4 0.023429,-4.05719 c 0.012886,-2.231455 0.01371,-4.078502 0.00183,-4.10455 -0.011879,-0.02605 -1.3554782,-0.04736 -2.9857765,-0.04736 l -2.9641788,0 0,-1.85331 0,-1.8533103 0.6156825,-0.040771 C 3.1152019,8.113005 4.4507594,8.0945112 5.7444821,8.0943315 l 2.352223,-3.267e-4 3.283e-4,-2.352223 C 8.0972103,4.4480591 8.1157069,3.1125016 8.1381309,2.7738762 L 8.1789,2.1581937 l 1.85331,0 1.853311,0 0,2.9641788 c 0,1.6302984 0.02131,2.9738977 0.04736,2.9857764 0.02605,0.011879 1.873096,0.011055 4.10455,-0.00183 l 4.05719,-0.023429 3.16e-4,-2.346665 c 1.91e-4,-1.2906658 0.01868,-2.6237222 0.04111,-2.9623476 l 0.04077,-0.6156825 1.852692,0 1.852692,0 0.0164,2.9836923 0.0164,2.9836922 2.983692,0.016405 2.983693,0.016405 0,1.8615977 0,1.861598 -2.983693,0.01641 -2.983692,0.0164 0,4.10455 0,4.10455 2.983692,0.0164 2.983693,0.0164 0,1.861598 0,1.861598 -2.983693,0.0164 -2.983692,0.01641 -0.0164,2.983692 -0.0164,2.983692 -1.861598,0 -1.861598,0 -0.0164,-2.983692 -0.01641,-2.983692 -4.104551,0 -4.10455,0 -0.01641,2.983692 -0.01641,2.983692 -1.861598,0 -1.8615974,0 -0.016405,-2.983692 z m 11.9815114,-10.877058 0,-4.10455 -4.104551,0 -4.10455,0 -0.01636,4.041403 c -0.009,2.222772 -0.0027,4.077131 0.01398,4.120798 0.02403,0.06286 0.881996,0.07601 4.120914,0.06315 l 4.090569,-0.01625 0,-4.10455 z"
             id="path4470"
             inkscape:connector-curvature="0" />
    </g>
</svg>
