<?xml version="1.0" encoding="UTF-8" standalone="no"?>
<!-- Created with Inkscape (http://www.inkscape.org/) -->

<svg
     xmlns:dc="http://purl.org/dc/elements/1.1/"
     xmlns:cc="http://creativecommons.org/ns#"
     xmlns:rdf="http://www.w3.org/1999/02/22-rdf-syntax-ns#"
     xmlns:svg="http://www.w3.org/2000/svg"
     xmlns="http://www.w3.org/2000/svg"
     xmlns:sodipodi="http://sodipodi.sourceforge.net/DTD/sodipodi-0.dtd"
     xmlns:inkscape="http://www.inkscape.org/namespaces/inkscape"
     width="32px"
     height="32px"
     id="svg3842"
     version="1.1"
     inkscape:version="0.48.4 r9939"
     sodipodi:docname="extension.svg">
    <defs
         id="defs3844" />
    <sodipodi:namedview
         id="base"
         pagecolor="#ccc"
         bordercolor="#666666"
         borderopacity="1.0"
         inkscape:pageopacity="1"
         inkscape:pageshadow="2"
         inkscape:zoom="16.21875"
         inkscape:cx="16"
         inkscape:cy="16"
         inkscape:current-layer="layer1"
         showgrid="true"
         inkscape:grid-bbox="true"
         inkscape:document-units="px"
         inkscape:snap-grids="false"
         inkscape:window-width="1366"
         inkscape:window-height="706"
         inkscape:window-x="-8"
         inkscape:window-y="-8"
         inkscape:window-maximized="1"
         inkscape:snap-to-guides="false">
        <inkscape:grid
             type="xygrid"
             id="grid3850"
             empspacing="5"
             visible="true"
             enabled="true"
             snapvisiblegridlinesonly="true" />
    </sodipodi:namedview>
    <metadata
         id="metadata3847">
        <rdf:RDF>
            <cc:Work
                 rdf:about="">
                <dc:format>image/svg+xml</dc:format>
                <dc:type
                     rdf:resource="http://purl.org/dc/dcmitype/StillImage" />
                <dc:title></dc:title>
            </cc:Work>
        </rdf:RDF>
    </metadata>
    <g
         id="layer1"
         inkscape:label="Layer 1"
         inkscape:groupmode="layer">
        <path
             style="fill:none;stroke:black;stroke-width:0.1;stroke-linecap:butt;stroke-linejoin:bevel;stroke-miterlimit:4;stroke-opacity:1"
             d="M 6.3410409,7.9989516 C 6.120174,7.37369 6,6.7008791 6,6 6,2.6862915 8.6862915,0 12,0 c 3.313708,0 6,2.6862915 6,6 0,0.7098108 -0.123257,1.3908334 -0.349534,2.0228325"
             id="path6463"
             inkscape:connector-curvature="0"
             sodipodi:nodetypes="csssc" />
        <path
             style="fill:none;stroke:black;stroke-width:0.1;stroke-linecap:butt;stroke-linejoin:bevel;stroke-miterlimit:4;stroke-opacity:1"
             d="M 9.0196196,8.6678896 C 8.385582,7.9600681 8,7.0250628 8,6 8,3.790861 9.790861,2 12,2 c 2.209139,0 4,1.790861 4,4 0,1.0235243 -0.384425,1.9572612 -1.016766,2.6647009"
             id="path6465"
             inkscape:connector-curvature="0"
             sodipodi:nodetypes="csssc" />
        <path
             style="fill:none;stroke:black;stroke-width:0.1;stroke-linecap:butt;stroke-linejoin:bevel;stroke-miterlimit:4;stroke-opacity:1"
             d="M 24.014398,14.336343 C 24.635883,14.118471 25.304106,14 26,14 c 3.313708,0 6,2.686292 6,6 0,3.313708 -2.686292,6 -6,6 -0.697123,0 -1.366478,-0.11889 -1.988895,-0.337499"
             id="path6467"
             inkscape:connector-curvature="0"
             sodipodi:nodetypes="csssc" />
        <path
             style="fill:none;stroke:black;stroke-width:0.1;stroke-linecap:butt;stroke-linejoin:bevel;stroke-miterlimit:4;stroke-opacity:1"
             d="M 23.34833,17.005169 C 24.054186,16.379728 24.982748,16 26,16 c 2.209139,0 4,1.790861 4,4 0,2.209139 -1.790861,4 -4,4 -1.003774,0 -1.921193,-0.369733 -2.623497,-0.98044"
             id="path6469"
             inkscape:connector-curvature="0"
             sodipodi:nodetypes="csssc" />
        <path
             style="fill:none;stroke:black;stroke-width:0.1;stroke-linecap:butt;stroke-linejoin:bevel;stroke-miterlimit:4;stroke-opacity:1"
             d="M 2.0005979,14.3412 C 2.6259868,14.120232 3.2989526,14 4,14 c 3.3137085,0 6,2.686292 6,6 0,3.313708 -2.6862915,6 -6,6 -0.6969794,0 -1.3662021,-0.118841 -1.9885103,-0.337364"
             id="path6471"
             inkscape:connector-curvature="0"
             sodipodi:nodetypes="csssc" />
        <path
             style="fill:none;stroke:black;stroke-width:0.1;stroke-linecap:butt;stroke-linejoin:bevel;stroke-miterlimit:4;stroke-opacity:1"
             d="M 1.3682001,16.98768 C 2.0715687,16.372656 2.9922651,16 4,16 c 2.209139,0 4,1.790861 4,4 0,2.209139 -1.790861,4 -4,4 -1.0060099,0 -1.9252789,-0.371381 -2.6281859,-0.984523"
             id="path6473"
             inkscape:connector-curvature="0"
             sodipodi:nodetypes="csssc" />
        <path
             style="fill:none;stroke:black;stroke-width:0.1;stroke-linecap:butt;stroke-linejoin:miter;stroke-miterlimit:4;stroke-opacity:1;stroke-dasharray:none"
             d="M 6.3476563,8 0,8 0.00390625,15.527344 m 0,8.953125 L 0,32 l 24,0 0,-6 0,-0.328125 M 24.0039,14.347656 24,8 l -6.328125,0.00391"
             id="path6585"
             inkscape:connector-curvature="0"
             sodipodi:nodetypes="ccccccccccc" />
        <path
             style="fill:none;stroke:black;stroke-width:0.1;stroke-linecap:butt;stroke-linejoin:miter;stroke-miterlimit:4;stroke-opacity:1;stroke-dasharray:none"
             d="M 7.5516795,10.0134 2,10 l 0.00781,4.359375 M 2,25.65625 2,30 22,30 22.0039,24.5 M 22,15.546875 22,10 16.480469,10.0039"
             id="path6587"
             inkscape:connector-curvature="0"
             sodipodi:nodetypes="cccccccccc" />
        <path
             style="fill:none;stroke:black;stroke-width:0.1;stroke-linecap:butt;stroke-linejoin:miter;stroke-opacity:1;stroke-miterlimit:4;stroke-dasharray:none"
             d="m 7.515625,9.9921875 1.4921875,-1.34375"
             id="path6589"
             inkscape:connector-curvature="0" />
        <path
             style="fill:none;stroke:black;stroke-width:0.10000000000000001;stroke-linecap:round;stroke-linejoin:miter;stroke-opacity:1;stroke-miterlimit:4;stroke-dasharray:none"
             d="M 16.507812,9.9921875 15,8.6640625"
             id="path6591"
             inkscape:connector-curvature="0" />
        <path
             style="fill:none;stroke:black;stroke-width:0.1;stroke-linecap:butt;stroke-linejoin:miter;stroke-opacity:1;stroke-miterlimit:4;stroke-dasharray:none"
             d="m 22.007812,24.5 1.351563,-1.484375"
             id="path6593"
             inkscape:connector-curvature="0" />
        <path
             style="fill:none;stroke:black;stroke-width:0.1;stroke-linecap:butt;stroke-linejoin:miter;stroke-opacity:1;stroke-miterlimit:4;stroke-dasharray:none"
             d="M 22.03125,15.507813 23.351562,17"
             id="path6595"
             inkscape:connector-curvature="0" />
        <path
             style="fill:none;stroke:black;stroke-width:0.1;stroke-linecap:butt;stroke-linejoin:miter;stroke-opacity:1;stroke-miterlimit:4;stroke-dasharray:none"
             d="m 0.0234375,15.476563 1.34375,1.515625"
             id="path6599"
             inkscape:connector-curvature="0" />
        <path
             style="fill:none;stroke:black;stroke-width:0.1;stroke-linecap:butt;stroke-linejoin:miter;stroke-opacity:1;stroke-miterlimit:4;stroke-dasharray:none"
             d="m 0.015625,24.515625 1.34375,-1.476562"
             id="path6601"
             inkscape:connector-curvature="0" />
        <path
             style="fill:white;fill-opacity:1;fill-rule:nonzero;stroke:black;stroke-width:0;stroke-linecap:round;stroke-linejoin:bevel;stroke-miterlimit:4;stroke-opacity:1;stroke-dasharray:none"
             d="m 2.0655106,27.856647 c 0,-1.13603 0.012519,-2.06551 0.02782,-2.06551 0.015301,0 0.1887115,0.04223 0.3853564,0.09385 C 5.19107,26.596995 8.153982,25.263635 9.4007593,22.769938 11.159268,19.252721 9.3127933,15.137931 5.5183041,14.11805 4.6945175,13.896634 3.5717135,13.878866 2.6814914,14.07316 c -0.3186585,0.06955 -0.5876145,0.126452 -0.5976801,0.126452 -0.010066,0 -0.018301,-0.92948 -0.018301,-2.065511 l 0,-2.065511 2.7478237,0 2.7478236,0 0.7666269,-0.6892179 C 8.7494301,9.0003046 9.0944123,8.6820563 9.0944123,8.672156 c 0,-0.0099 -0.141255,-0.2261907 -0.3139002,-0.4806443 C 8.3443114,7.5486139 8.1547431,6.9842744 8.1205611,6.2268521 8.0759863,5.2391496 8.2874272,4.4915333 8.8252381,3.7352469 9.5649541,2.6950344 10.727211,2.1019207 12.014237,2.1078625 c 1.094659,0.00505 1.932698,0.3580928 2.729661,1.1499188 0.403351,0.400751 0.549485,0.5994705 0.74899,1.0185147 0.317047,0.6659306 0.408908,1.0643897 0.404314,1.7537618 -0.0058,0.8746286 -0.267256,1.6523367 -0.78221,2.3269629 -0.17467,0.2288296 -0.201855,0.3004381 -0.143147,0.3770642 0.03986,0.052024 0.39114,0.3735714 0.780626,0.7145489 l 0.708155,0.6199592 2.729225,0 2.729224,0 0.0014,2.728324 0.0014,2.728324 0.438291,0.493256 c 0.241061,0.271291 0.561942,0.625621 0.713069,0.7874 l 0.274777,0.294145 0.29399,-0.215808 c 0.401183,-0.294496 0.947568,-0.55794 1.400694,-0.675357 0.479443,-0.124235 1.422783,-0.126652 1.903875,-0.0049 1.06338,0.269167 2.079339,1.095713 2.542451,2.068441 0.324134,0.680818 0.413372,1.072343 0.406751,1.784591 -0.0099,1.065746 -0.363853,1.885704 -1.160718,2.688934 -0.401237,0.404443 -0.5964,0.547719 -1.020231,0.74899 -0.673793,0.319973 -1.064875,0.407708 -1.788054,0.401128 -0.764153,-0.007 -1.420973,-0.209709 -2.056654,-0.634878 -0.251871,-0.16846 -0.48577,-0.306293 -0.519776,-0.306293 -0.03401,0 -0.369627,0.339885 -0.745825,0.755299 l -0.683997,0.755299 -7.27e-4,2.728323 -7.28e-4,2.728324 -9.926782,0 -9.9267824,0 0,-2.065511 z"
             id="path6619"
             inkscape:connector-curvature="0" />
        <path
             style="fill:white;fill-opacity:1;fill-rule:nonzero;stroke:black;stroke-width:0;stroke-linecap:round;stroke-linejoin:bevel;stroke-miterlimit:4;stroke-opacity:1;stroke-dasharray:none"
             d="m 0.09248555,28.219844 0,-3.675338 0.65482623,-0.70211 0.65482622,-0.70211 0.2944897,0.216176 c 1.3713608,1.006671 3.5145833,0.925969 4.8668078,-0.183256 0.9759106,-0.800537 1.4855707,-1.878688 1.4876424,-3.147002 0.00211,-1.292893 -0.4747524,-2.333472 -1.4498367,-3.16373 -0.418959,-0.356732 -1.1955093,-0.73208 -1.7611641,-0.851263 -1.0090376,-0.212603 -2.22852,0.01662 -3.0619079,0.575547 -0.334973,0.224654 -0.4215356,0.258927 -0.4843127,0.191756 -0.042042,-0.04498 -0.32954895,-0.366901 -0.63890516,-0.71537 l -0.56246579,-0.633581 0,-3.666997 0,-3.6669976 3.13423245,0 c 1.7238279,0 3.1488319,-0.014599 3.1666748,-0.032443 C 6.4112364,8.0452828 6.3608416,7.7804492 6.2814045,7.4746075 5.7176581,5.3041194 6.4545474,2.9767018 8.1689625,1.5128755 9.9655744,-0.02113303 12.436759,-0.33864961 14.55106,0.69285524 16.164002,1.4797622 17.253889,2.80381 17.740306,4.567303 c 0.195151,0.7075176 0.193329,2.1132118 -0.0037,2.8650472 -0.07771,0.2965019 -0.124027,0.5670221 -0.102931,0.6011561 0.02492,0.040315 1.126006,0.062062 3.14228,0.062062 l 3.103923,0 0.02153,3.1085637 c 0.01184,1.70971 0.04184,3.12886 0.06666,3.153667 0.02482,0.02481 0.316149,-0.02145 0.647399,-0.102784 0.821728,-0.201772 1.95603,-0.204017 2.752686,-0.0054 1.423217,0.354743 2.719494,1.256027 3.5208,2.447962 2.289383,3.40544 0.545387,7.947396 -3.473359,9.045806 -0.707899,0.193484 -2.123111,0.192384 -2.839439,-0.0022 -0.285049,-0.07743 -0.55557,-0.126476 -0.601156,-0.108983 -0.0679,0.02605 -0.08289,0.595267 -0.08289,3.147419 l 0,3.115615 -11.899807,0 -11.89980745,0 0,-3.675339 z m 22.01156045,-0.895858 0,-2.783143 0.335889,-0.37678 c 0.18474,-0.207228 0.471714,-0.528225 0.637721,-0.713325 l 0.301832,-0.336546 0.240892,0.189762 c 1.1274,0.888105 2.905792,1.007407 4.297954,0.288327 0.599928,-0.309876 1.416461,-1.125075 1.688294,-1.685537 0.365394,-0.753364 0.420347,-1.003243 0.420347,-1.911368 0,-0.923918 -0.05706,-1.169595 -0.451111,-1.942197 -0.325682,-0.63856 -1.063554,-1.353713 -1.741733,-1.688104 -0.686849,-0.338667 -1.275946,-0.460417 -2.030663,-0.419683 -0.754224,0.04071 -1.462889,0.263023 -2.011834,0.631131 -0.484377,0.32481 -0.378916,0.373042 -1.170259,-0.535213 l -0.517329,-0.593758 0,-2.751136 0,-2.7511366 -2.759152,-0.00107 -2.759152,-0.00107 -0.431599,-0.3781426 C 15.916763,9.3570127 15.588781,9.0670921 15.425294,8.9207226 L 15.128044,8.6545967 15.3091,8.3904956 C 16.203288,7.0861639 16.308548,5.4613492 15.589037,4.069332 15.251363,3.4160485 14.5186,2.7045032 13.837985,2.3689871 11.554041,1.2430935 8.8444079,2.391712 8.1104086,4.7969171 7.7530667,5.9678709 7.9345942,7.2266321 8.6103806,8.2638693 8.8616552,8.6495402 8.8647504,8.6607057 8.7496749,8.7664012 8.6849449,8.8258546 8.3651866,9.1154238 8.0391004,9.4098886 l -0.5928848,0.5353908 -2.7520094,0 -2.7520097,0 0,2.2196536 c 0,1.814158 0.015094,2.219653 0.082623,2.219653 0.045443,0 0.30209,-0.05912 0.5703276,-0.131365 0.7130583,-0.192065 2.0050264,-0.194506 2.7589299,-0.0052 1.7882758,0.449006 3.2600909,1.659246 4.0211797,3.306523 0.4012011,0.868347 0.4883058,1.303747 0.4883058,2.440845 0,0.874397 -0.019701,1.085738 -0.1402118,1.504125 -0.4691705,1.628865 -1.5310218,2.956373 -2.9861123,3.733186 -1.231517,0.65746 -2.8609729,0.852216 -4.1784712,0.499422 -0.2543353,-0.06811 -0.4971099,-0.124303 -0.5394991,-0.124883 -0.060269,-8.27e-4 -0.077071,0.48958 -0.077071,2.249424 l 0,2.250482 10.0809249,0 10.080925,0 0,-2.783143 z"
             id="path6621"
             inkscape:connector-curvature="0" />
        <path
             style="fill:black;fill-opacity:1;fill-rule:nonzero;stroke:black;stroke-width:0;stroke-linecap:round;stroke-linejoin:bevel;stroke-miterlimit:4;stroke-opacity:1;stroke-dasharray:none"
             d="m 2.0931712,27.90289 c 0.024836,-1.110597 0.054283,-2.028594 0.065439,-2.039992 0.011156,-0.0114 0.2375464,0.03022 0.5030906,0.09248 0.3508421,0.08227 0.7187454,0.112641 1.3460062,0.111127 1.0301224,-0.0025 1.6575742,-0.138833 2.535498,-0.550972 1.7455064,-0.819424 2.8445307,-2.140478 3.3648384,-4.044615 0.1214426,-0.444436 0.1416956,-0.662997 0.1395926,-1.506376 -0.0025,-1.016158 -0.053579,-1.333524 -0.3398584,-2.11306 C 8.9882592,15.892238 7.2560133,14.442292 5.1175336,14.0093 4.5884689,13.902176 3.3688616,13.91831 2.7213434,14.041 2.4207798,14.09795 2.1664507,14.13612 2.1561676,14.12583 2.1458846,14.11554 2.1172086,13.198449 2.0924426,12.087851 l -0.045029,-2.019268 2.7850444,0 2.7850444,0 0.7336137,-0.6628127 C 8.7546038,9.0412331 9.0869087,8.7203619 9.089571,8.6927328 9.0922346,8.6651037 8.9558468,8.4153927 8.7864885,8.1378196 8.3305113,7.3904856 8.2175069,7.0238769 8.1838095,6.1826102 8.1626476,5.654303 8.1809548,5.3695416 8.2551695,5.0727836 8.5987064,3.6990631 9.686929,2.6110777 11.067437,2.2611296 c 0.537864,-0.1363441 1.463764,-0.1343184 1.942197,0.00425 1.254368,0.3633005 2.274378,1.3703753 2.720176,2.6856808 0.08414,0.2482574 0.114351,0.5125667 0.112751,0.9865126 -0.0031,0.9154588 -0.158887,1.4717867 -0.611662,2.1841497 -0.395235,0.6218365 -0.434503,0.5017804 0.413873,1.2653769 l 0.755999,0.6804504 2.759152,4.93e-4 2.759152,4.93e-4 0.0019,2.759153 0.0019,2.759152 0.682229,0.755299 c 0.375226,0.415414 0.707654,0.755298 0.738729,0.755298 0.03108,0 0.223637,-0.114086 0.427916,-0.253525 0.204279,-0.13944 0.571595,-0.338678 0.816259,-0.442752 0.393643,-0.167445 0.530306,-0.192297 1.187389,-0.21592 0.910049,-0.03272 1.290724,0.03995 1.957403,0.373629 0.906523,0.453729 1.631826,1.322719 1.99338,2.388279 0.173385,0.510996 0.161711,1.610306 -0.02336,2.199637 -0.276662,0.880993 -1.095452,1.844068 -1.926233,2.265667 -0.708515,0.359554 -1.009627,0.433367 -1.757225,0.430758 -0.84243,-0.0029 -1.215401,-0.104977 -2.021388,-0.553007 -0.331798,-0.184383 -0.627783,-0.33529 -0.65774,-0.33529 -0.02996,0 -0.361951,0.325352 -0.737764,0.723004 l -0.683296,0.723003 0,2.760619 0,2.760619 -9.93553,0 -9.9355299,0 0.045156,-2.019268 z"
             id="path6623"
             inkscape:connector-curvature="0" />
    </g>
</svg>
