<?xml version="1.0" encoding="UTF-8" standalone="no"?>
<!-- Created with Inkscape (http://www.inkscape.org/) -->

<svg
     xmlns:dc="http://purl.org/dc/elements/1.1/"
     xmlns:cc="http://creativecommons.org/ns#"
     xmlns:rdf="http://www.w3.org/1999/02/22-rdf-syntax-ns#"
     xmlns:svg="http://www.w3.org/2000/svg"
     xmlns="http://www.w3.org/2000/svg"
     xmlns:sodipodi="http://sodipodi.sourceforge.net/DTD/sodipodi-0.dtd"
     xmlns:inkscape="http://www.inkscape.org/namespaces/inkscape"
     width="32px"
     height="32px"
     id="svg3842"
     version="1.1"
     inkscape:version="0.48.4 r9939"
     sodipodi:docname="about.svg">
    <defs
         id="defs3844" />
    <sodipodi:namedview
         id="base"
         pagecolor="#ccc"
         bordercolor="#666666"
         borderopacity="1.0"
         inkscape:pageopacity="1"
         inkscape:pageshadow="2"
         inkscape:zoom="16.21875"
         inkscape:cx="16"
         inkscape:cy="16.030829"
         inkscape:current-layer="layer1"
         showgrid="true"
         inkscape:grid-bbox="true"
         inkscape:document-units="px"
         inkscape:snap-grids="true"
         inkscape:window-width="1366"
         inkscape:window-height="706"
         inkscape:window-x="-8"
         inkscape:window-y="-8"
         inkscape:window-maximized="1"
         inkscape:snap-to-guides="true">
        <inkscape:grid
             type="xygrid"
             id="grid3850"
             empspacing="5"
             visible="true"
             enabled="true"
             snapvisiblegridlinesonly="true" />
    </sodipodi:namedview>
    <metadata
         id="metadata3847">
        <rdf:RDF>
            <cc:Work
                 rdf:about="">
                <dc:format>image/svg+xml</dc:format>
                <dc:type
                     rdf:resource="http://purl.org/dc/dcmitype/StillImage" />
                <dc:title></dc:title>
            </cc:Work>
        </rdf:RDF>
    </metadata>
    <g
         id="layer1"
         inkscape:label="Layer 1"
         inkscape:groupmode="layer">
        <path
             style="fill:#000000;fill-opacity:1;stroke:#000000;stroke-width:0;stroke-miterlimit:4;stroke-opacity:1;stroke-dasharray:none"
             d="M 16 0 C 7.163444 1.7763568e-015 2.6212348e-018 7.163444 0 16 C 0 24.836556 7.163444 32 16 32 C 24.836556 32 32 24.836556 32 16 C 32 7.163444 24.836556 -3.5500924e-015 16 0 z M 16 2 C 23.731986 2 30 8.2680135 30 16 C 30 23.731986 23.731986 30 16 30 C 8.2680135 30 2 23.731986 2 16 C 2 8.2680135 8.2680135 2 16 2 z M 16 8 C 11.581722 8 8 11.581722 8 16 C 8 20.418278 11.581722 24 16 24 C 20.418278 24 24 20.418278 24 16 C 24 11.581722 20.418278 8 16 8 z M 16 10 C 19.313708 10 22 12.686292 22 16 C 22 19.313708 19.313708 22 16 22 C 12.686292 22 10 19.313708 10 16 C 10 12.686292 12.686292 10 16 10 z "
             id="path3970" />
        <path
             style="fill:#ffffff;fill-opacity:1;stroke:#000000;stroke-width:0;stroke-miterlimit:4;stroke-opacity:1;stroke-dasharray:none"
             d="M 14.181118,29.844185 C 11.12239,29.428647 8.3085996,28.034986 6.1301283,25.856557 2.6173455,22.343842 1.2329206,17.218255 2.503621,12.430058 3.8035939,7.5315572 7.6764754,3.7031604 12.578035,2.4713607 13.812434,2.1611464 14.692584,2.0537292 16,2.0537292 c 1.307416,0 2.187566,0.1074172 3.421965,0.4176315 4.901559,1.2317997 8.774441,5.0601965 10.074414,9.9586973 0.740327,2.789668 0.573612,5.916451 -0.455831,8.549252 -1.89438,4.844869 -6.155046,8.195309 -11.27532,8.866519 -0.887697,0.116367 -2.721641,0.115526 -3.58411,-0.0016 l 0,2e-6 z m 3.023033,-5.913403 c 1.928309,-0.312762 3.621387,-1.241659 4.849946,-2.660893 0.972321,-1.123227 1.631616,-2.53175 1.872255,-3.999903 0.123008,-0.750473 0.0896,-2.221895 -0.06649,-2.92856 -0.692807,-3.136557 -3.108852,-5.5336233 -6.256782,-6.2076333 -0.73651,-0.1576956 -2.469656,-0.1576956 -3.206166,0 -3.14793,0.67401 -5.5639749,3.0710763 -6.2567817,6.2076333 -0.1560889,0.706665 -0.1894948,2.178087 -0.066487,2.92856 0.6365355,3.883529 3.9341087,6.711657 7.8646947,6.745071 0.389981,0.0033 0.959594,-0.03461 1.265808,-0.08427 z"
             id="path3994"
             inkscape:connector-curvature="0" />
    </g>
</svg>
