<?xml version="1.0" encoding="UTF-8" standalone="no"?>
<!-- Created with Inkscape (http://www.inkscape.org/) -->

<svg
     xmlns:dc="http://purl.org/dc/elements/1.1/"
     xmlns:cc="http://creativecommons.org/ns#"
     xmlns:rdf="http://www.w3.org/1999/02/22-rdf-syntax-ns#"
     xmlns:svg="http://www.w3.org/2000/svg"
     xmlns="http://www.w3.org/2000/svg"
     xmlns:sodipodi="http://sodipodi.sourceforge.net/DTD/sodipodi-0.dtd"
     xmlns:inkscape="http://www.inkscape.org/namespaces/inkscape"
     width="32px"
     height="32px"
     id="svg3842"
     version="1.1"
     inkscape:version="0.48.4 r9939"
     sodipodi:docname="insecure.svg">
    <defs
         id="defs3844" />
    <sodipodi:namedview
         id="base"
         pagecolor="#ccc"
         bordercolor="#666666"
         borderopacity="1.0"
         inkscape:pageopacity="1"
         inkscape:pageshadow="2"
         inkscape:zoom="16.21875"
         inkscape:cx="7.7184012"
         inkscape:cy="16"
         inkscape:current-layer="layer1"
         showgrid="true"
         inkscape:grid-bbox="true"
         inkscape:document-units="px"
         inkscape:snap-grids="true"
         inkscape:window-width="1366"
         inkscape:window-height="706"
         inkscape:window-x="-8"
         inkscape:window-y="-8"
         inkscape:window-maximized="1"
         inkscape:snap-to-guides="false">
        <inkscape:grid
             type="xygrid"
             id="grid3850"
             empspacing="5"
             visible="true"
             enabled="true"
             snapvisiblegridlinesonly="true" />
    </sodipodi:namedview>
    <metadata
         id="metadata3847">
        <rdf:RDF>
            <cc:Work
                 rdf:about="">
                <dc:format>image/svg+xml</dc:format>
                <dc:type
                     rdf:resource="http://purl.org/dc/dcmitype/StillImage" />
                <dc:title />
            </cc:Work>
        </rdf:RDF>
    </metadata>
    <g
         id="layer1"
         inkscape:label="Layer 1"
         inkscape:groupmode="layer">
        <rect
             style="fill:black;fill-opacity:1;fill-rule:nonzero;stroke:black;stroke-width:0;stroke-linecap:round;stroke-linejoin:bevel;stroke-miterlimit:4;stroke-opacity:1;stroke-dasharray:none"
             id="rect6872"
             width="32"
             height="20"
             x="0"
             y="12" />
        <rect
             style="fill:white;fill-opacity:1;fill-rule:nonzero;stroke:black;stroke-width:0;stroke-linecap:round;stroke-linejoin:bevel;stroke-miterlimit:4;stroke-opacity:1;stroke-dasharray:none"
             id="rect6874"
             width="28"
             height="16"
             x="2"
             y="14" />
        <path
             style="fill:black;fill-opacity:1;fill-rule:nonzero;stroke:black;stroke-width:0;stroke-linecap:round;stroke-linejoin:bevel;stroke-miterlimit:4;stroke-opacity:1"
             d="M 16 0 L 16 2 C 20.418278 2 24 5.581722 24 10 C 24 11.461291 23.590525 12.821042 22.90625 14 L 25.15625 14 C 25.69234 12.774216 26 11.423471 26 10 C 26 4.4771525 21.522847 -2.7177334e-017 16 0 z M 16 6 L 16 8 C 17.104569 8 18 8.8954305 18 10 L 18 12 L 16 12 L 12.5625 12 C 13.254585 13.193791 14.520791 14 16 14 C 18.209139 14 20 12.209139 20 10 C 20 7.790861 18.209139 6 16 6 z M 6.21875 12 C 6.363021 12.691183 6.5681968 13.369052 6.84375 14 L 9.09375 14 C 8.7356784 13.383067 8.4382779 12.704589 8.25 12 L 6.21875 12 z "
             id="path6884" />
        <path
             style="fill:black;stroke:black;stroke-width:0;stroke-linecap:butt;stroke-linejoin:miter;stroke-opacity:1;stroke-miterlimit:4;stroke-dasharray:none"
             d="m 26,10 0,4 -2,0 0,-4 z"
             id="path6892"
             inkscape:connector-curvature="0" />
        <rect
             style="fill:white;fill-opacity:1;fill-rule:nonzero;stroke:black;stroke-width:0;stroke-linecap:round;stroke-linejoin:bevel;stroke-miterlimit:4;stroke-opacity:1;stroke-dasharray:none"
             id="rect6902"
             width="4"
             height="4"
             x="20"
             y="10" />
        <path
             style="fill:white;fill-opacity:1;fill-rule:nonzero;stroke:black;stroke-width:0;stroke-linecap:round;stroke-linejoin:bevel;stroke-miterlimit:4;stroke-opacity:1;stroke-dasharray:none"
             d="M 16 2 L 16 6 C 16.767401 6.0013789 17.523018 6.2156774 18.15625 6.625 C 18.784529 7.0311211 19.312343 7.616177 19.625 8.28125 C 19.83249 8.7226157 19.955578 9.1646244 20 9.6875 L 20.03125 10 L 22 10 L 24 10 L 23.96875 9.625 C 23.92487 8.5712303 23.67885 7.574116 23.21875 6.59375 C 22.655473 5.393536 21.750693 4.2861196 20.65625 3.5 C 19.789183 2.8772008 18.798339 2.4573583 17.75 2.21875 C 17.173708 2.0875825 16.585279 1.9996431 16 2 z "
             id="path6918" />
        <path
             sodipodi:type="arc"
             style="fill:black;fill-opacity:1;fill-rule:nonzero;stroke:black;stroke-width:0;stroke-linecap:round;stroke-linejoin:bevel;stroke-miterlimit:4;stroke-opacity:1;stroke-dasharray:none"
             id="path6920"
             sodipodi:cx="16"
             sodipodi:cy="22"
             sodipodi:rx="4"
             sodipodi:ry="4"
             d="m 20,22 a 4,4 0 1 1 -8,0 4,4 0 1 1 8,0 z" />
        <rect
             style="fill:#000000;fill-opacity:1;stroke:#000000;stroke-width:0;stroke-miterlimit:4;stroke-opacity:1;stroke-dasharray:none"
             id="rect2993"
             width="17"
             height="2"
             x="8"
             y="12" />
        <rect
             style="fill:#000000;fill-opacity:1;stroke:#000000;stroke-width:0;stroke-miterlimit:4;stroke-opacity:1;stroke-dasharray:none"
             id="rect3023"
             width="2"
             height="2"
             x="18"
             y="10" />
        <rect
             style="fill:#000000;fill-opacity:1;stroke:#000000;stroke-width:0;stroke-miterlimit:4;stroke-opacity:1;stroke-dasharray:none"
             id="rect3025"
             width="2"
             height="8"
             x="15"
             y="0" />
    </g>
</svg>
