<?xml version="1.0" encoding="UTF-8" standalone="no"?>
<!-- Created with Inkscape (http://www.inkscape.org/) -->

<svg
     xmlns:dc="http://purl.org/dc/elements/1.1/"
     xmlns:cc="http://creativecommons.org/ns#"
     xmlns:rdf="http://www.w3.org/1999/02/22-rdf-syntax-ns#"
     xmlns:svg="http://www.w3.org/2000/svg"
     xmlns="http://www.w3.org/2000/svg"
     xmlns:sodipodi="http://sodipodi.sourceforge.net/DTD/sodipodi-0.dtd"
     xmlns:inkscape="http://www.inkscape.org/namespaces/inkscape"
     width="32px"
     height="32px"
     id="svg3842"
     version="1.1"
     inkscape:version="0.48.4 r9939"
     sodipodi:docname="secure.svg">
    <defs
         id="defs3844" />
    <sodipodi:namedview
         id="base"
         pagecolor="#ccc"
         bordercolor="#666666"
         borderopacity="1.0"
         inkscape:pageopacity="1"
         inkscape:pageshadow="2"
         inkscape:zoom="16.21875"
         inkscape:cx="5.8265896"
         inkscape:cy="16"
         inkscape:current-layer="layer1"
         showgrid="true"
         inkscape:grid-bbox="true"
         inkscape:document-units="px"
         inkscape:snap-grids="true"
         inkscape:window-width="1366"
         inkscape:window-height="706"
         inkscape:window-x="-8"
         inkscape:window-y="-8"
         inkscape:window-maximized="1"
         inkscape:snap-to-guides="false">
        <inkscape:grid
             type="xygrid"
             id="grid3850"
             empspacing="5"
             visible="true"
             enabled="true"
             snapvisiblegridlinesonly="true" />
    </sodipodi:namedview>
    <metadata
         id="metadata3847">
        <rdf:RDF>
            <cc:Work
                 rdf:about="">
                <dc:format>image/svg+xml</dc:format>
                <dc:type
                     rdf:resource="http://purl.org/dc/dcmitype/StillImage" />
                <dc:title />
            </cc:Work>
        </rdf:RDF>
    </metadata>
    <g
         id="layer1"
         inkscape:label="Layer 1"
         inkscape:groupmode="layer">
        <rect
             style="fill:black;fill-opacity:1;fill-rule:nonzero;stroke:black;stroke-width:0;stroke-linecap:round;stroke-linejoin:bevel;stroke-miterlimit:4;stroke-opacity:1;stroke-dasharray:none"
             id="rect6872"
             width="32"
             height="20"
             x="0"
             y="12" />
        <rect
             style="fill:white;fill-opacity:1;fill-rule:nonzero;stroke:black;stroke-width:0;stroke-linecap:round;stroke-linejoin:bevel;stroke-miterlimit:4;stroke-opacity:1;stroke-dasharray:none"
             id="rect6874"
             width="28"
             height="16"
             x="2"
             y="14" />
        <path
             style="fill:black;fill-opacity:1;fill-rule:nonzero;stroke:black;stroke-width:0;stroke-linecap:round;stroke-linejoin:bevel;stroke-miterlimit:4;stroke-opacity:1"
             d="M 16 0 C 10.477153 0 6 4.4771525 6 10 C 6 11.421647 6.3089576 12.775458 6.84375 14 L 9.09375 14 C 8.4094754 12.821042 8 11.461291 8 10 C 8 5.581722 11.581722 2 16 2 C 20.418278 2 24 5.581722 24 10 C 24 11.461291 23.590525 12.821042 22.90625 14 L 25.15625 14 C 25.69234 12.774216 26 11.423471 26 10 C 26 4.4771525 21.522847 -2.7122499e-017 16 0 z M 16 6 C 13.790861 6 12 7.790861 12 10 C 12 12.209139 13.790861 14 16 14 C 18.209139 14 20 12.209139 20 10 C 20 7.790861 18.209139 6 16 6 z M 16 8 C 17.104569 8 18 8.8954305 18 10 L 18 12 L 16 12 L 14 12 L 14 10 C 14 8.8954305 14.895431 8 16 8 z "
             id="path6884" />
        <path
             style="fill:black;stroke:black;stroke-width:0;stroke-linecap:butt;stroke-linejoin:miter;stroke-opacity:1;stroke-miterlimit:4;stroke-dasharray:none"
             d="m 26,10 0,4 -2,0 0,-4 z"
             id="path6892"
             inkscape:connector-curvature="0" />
        <path
             style="fill:black;stroke:black;stroke-width:0;stroke-linecap:butt;stroke-linejoin:miter;stroke-opacity:1;stroke-miterlimit:4;stroke-dasharray:none"
             d="m 6,10 0,4 2,0 0,-4 z"
             id="path6894"
             inkscape:connector-curvature="0" />
        <path
             style="fill:black;stroke:black;stroke-width:0;stroke-linecap:butt;stroke-linejoin:miter;stroke-opacity:1;stroke-miterlimit:4;stroke-dasharray:none"
             d="m 12,10 0,4 8,0 0,-4 -2,0 0,2 -4,0 0,-2 z"
             id="path6896"
             inkscape:connector-curvature="0" />
        <rect
             style="fill:white;fill-opacity:1;fill-rule:nonzero;stroke:black;stroke-width:0;stroke-linecap:round;stroke-linejoin:bevel;stroke-miterlimit:4;stroke-opacity:1;stroke-dasharray:none"
             id="rect6900"
             width="4"
             height="4"
             x="8"
             y="10" />
        <rect
             style="fill:white;fill-opacity:1;fill-rule:nonzero;stroke:black;stroke-width:0;stroke-linecap:round;stroke-linejoin:bevel;stroke-miterlimit:4;stroke-opacity:1;stroke-dasharray:none"
             id="rect6902"
             width="4"
             height="4"
             x="20"
             y="10" />
        <path
             style="fill:white;fill-opacity:1;fill-rule:nonzero;stroke:black;stroke-width:0;stroke-linecap:round;stroke-linejoin:bevel;stroke-miterlimit:4;stroke-opacity:1;stroke-dasharray:none"
             d="M 8.0274521,9.624392 C 8.1119613,7.2904914 9.2958992,5.0556887 11.214438,3.6086336 13.064899,2.2129258 15.491919,1.6934593 17.755399,2.208641 c 1.048339,0.2386083 2.030962,0.6805194 2.898029,1.3033186 1.094443,0.7861196 2.004713,1.8768339 2.56799,3.0770479 0.4601,0.980366 0.708181,1.9816573 0.752061,3.035427 l 0.0152,0.3651182 -1.985754,-1.32e-5 -1.985754,-1.33e-5 -0.02547,-0.299737 C 19.947279,9.1669136 19.833279,8.7305657 19.625789,8.2892 19.313132,7.624127 18.790644,7.0293076 18.162365,6.6231865 17.250909,6.0340191 16.081166,5.8485198 14.996574,6.1211514 13.725318,6.4407042 12.668813,7.4050413 12.22725,8.6488844 12.097002,9.0157801 12.028727,9.3533688 11.9991,9.7769854 l -0.01487,0.2125408 -1.9850019,0 -1.9850023,0 0.013221,-0.3651342 0,0 z"
             id="path6918"
             inkscape:connector-curvature="0" />
        <path
             sodipodi:type="arc"
             style="fill:black;fill-opacity:1;fill-rule:nonzero;stroke:black;stroke-width:0;stroke-linecap:round;stroke-linejoin:bevel;stroke-miterlimit:4;stroke-opacity:1;stroke-dasharray:none"
             id="path6920"
             sodipodi:cx="16"
             sodipodi:cy="22"
             sodipodi:rx="4"
             sodipodi:ry="4"
             d="m 20,22 a 4,4 0 1 1 -8,0 4,4 0 1 1 8,0 z" />
        <rect
             style="fill:#000000;fill-opacity:1;stroke:#000000;stroke-width:0;stroke-miterlimit:4;stroke-opacity:1;stroke-dasharray:none"
             id="rect2993"
             width="17"
             height="2"
             x="8"
             y="12" />
    </g>
</svg>
